<?xml version="1.0" encoding="UTF-8"?>
<svg version="1.1" xmlns="http://www.w3.org/2000/svg" width="512" height="512">
<path d="M0 0 C1.63309093 -0.00417981 3.26617895 -0.00966086 4.89926165 -0.01631981 C9.35827209 -0.03070842 13.81709665 -0.0265504 18.27611697 -0.019153 C23.0962963 -0.01440722 27.91643623 -0.02694366 32.73660278 -0.03717041 C42.16887874 -0.05433651 51.60108802 -0.05520291 61.03337554 -0.04995751 C68.70316225 -0.04591028 76.3729293 -0.04736593 84.04271507 -0.05270576 C85.68234457 -0.0538284 85.68234457 -0.0538284 87.35509789 -0.05497371 C89.57596551 -0.05650525 91.79683314 -0.05804359 94.01770075 -0.05958868 C114.82887802 -0.07330595 135.64001767 -0.06788159 156.45119407 -0.05640347 C175.47132249 -0.04647324 194.4913536 -0.05940951 213.51146702 -0.08333766 C233.06227401 -0.10774727 252.61303572 -0.11733186 272.16385764 -0.11068493 C283.13174659 -0.10719668 294.09956073 -0.10939867 305.06743813 -0.12693596 C314.40469083 -0.14168127 323.74181605 -0.142263 333.07906631 -0.12486505 C337.83843908 -0.11637164 342.59758433 -0.11416479 347.35694504 -0.1295166 C351.7225472 -0.14342339 356.08772823 -0.13852421 360.4533064 -0.11927737 C362.02386249 -0.11553531 363.59445281 -0.11838696 365.16497824 -0.12888902 C385.88154904 -0.25745587 403.33778018 5.91590528 418.62419128 20.38768005 C423.83434634 25.72855585 427.53892735 31.67153485 430.93669128 38.26268005 C431.42528625 39.19769348 431.42528625 39.19769348 431.92375183 40.15159607 C437.3747468 51.2761624 438.06296219 62.58622921 438.01187134 74.76348877 C438.01605115 76.3965797 438.02153219 78.02966772 438.02819115 79.66275042 C438.04257976 84.12176085 438.03842174 88.58058542 438.03102434 93.03960574 C438.02627856 97.85978507 438.038815 102.679925 438.04904175 107.50009155 C438.06620785 116.93236751 438.06707425 126.36457679 438.06182884 135.79686431 C438.05778162 143.46665102 438.05923727 151.13641807 438.0645771 158.80620384 C438.06532552 159.89929017 438.06607395 160.9923765 438.06684505 162.11858666 C438.06837658 164.33945428 438.06991493 166.56032191 438.07146002 168.78118952 C438.08517729 189.59236679 438.07975293 210.40350644 438.0682748 231.21468284 C438.05834458 250.23481126 438.07128085 269.25484237 438.095209 288.27495579 C438.11961861 307.82576278 438.1292032 327.37652449 438.12255627 346.92734641 C438.11906802 357.89523536 438.12127001 368.8630495 438.1388073 379.8309269 C438.15355261 389.1681796 438.15413434 398.50530482 438.13673639 407.84255508 C438.12824298 412.60192785 438.12603613 417.3610731 438.14138794 422.12043381 C438.15529472 426.48603597 438.15039554 430.851217 438.1311487 435.21679517 C438.12740664 436.78735126 438.1302583 438.35794158 438.14076035 439.92846701 C438.27271023 461.19016003 431.7270297 478.93864477 416.62419128 494.38768005 C400.94936709 508.34471529 383.76415663 512.86143599 363.24838257 512.77536011 C361.61529164 512.77953992 359.98220362 512.78502096 358.34912091 512.79167992 C353.89011048 512.80606853 349.43128592 512.80191051 344.9722656 512.79451311 C340.15208627 512.78976733 335.33194634 512.80230377 330.51177979 512.81253052 C321.07950383 512.82969662 311.64729455 512.83056302 302.21500703 512.82531761 C294.54522032 512.82127039 286.87545327 512.82272604 279.2056675 512.82806587 C277.566038 512.82918851 277.566038 512.82918851 275.89328468 512.83033382 C273.67241705 512.83186535 271.45154943 512.8334037 269.23068181 512.83494879 C248.41950455 512.84866606 227.6083649 512.8432417 206.7971885 512.83176357 C187.77706008 512.82183335 168.75702896 512.83476962 149.73691555 512.85869776 C130.18610856 512.88310738 110.63534685 512.89269197 91.08452493 512.88604504 C80.11663598 512.88255679 69.14882184 512.88475878 58.18094444 512.90229607 C48.84369174 512.91704138 39.50656652 512.91762311 30.16931625 512.90022516 C25.40994349 512.89173174 20.65079824 512.8895249 15.89143753 512.90487671 C11.52583537 512.91878349 7.16065434 512.91388431 2.79507617 512.89463747 C1.22452008 512.89089541 -0.34607024 512.89374707 -1.91659568 512.90424912 C-23.17828869 513.036199 -40.92677344 506.49051847 -56.37580872 491.38768005 C-70.33284395 475.71285586 -74.84956465 458.5276454 -74.76348877 438.01187134 C-74.76766858 436.37878041 -74.77314963 434.74569239 -74.77980858 433.11260968 C-74.79419719 428.65359925 -74.79003917 424.19477469 -74.78264177 419.73575437 C-74.77789599 414.91557504 -74.79043243 410.0954351 -74.80065918 405.27526855 C-74.81782528 395.8429926 -74.81869168 386.41078332 -74.81344628 376.9784958 C-74.80939905 369.30870909 -74.8108547 361.63894204 -74.81619453 353.96915627 C-74.81694296 352.87606994 -74.81769138 351.78298361 -74.81846248 350.65677345 C-74.81999402 348.43590582 -74.82153236 346.2150382 -74.82307745 343.99417058 C-74.83679472 323.18299331 -74.83137036 302.37185367 -74.81989224 281.56067727 C-74.80996201 262.54054885 -74.82289828 243.52051773 -74.84682643 224.50040432 C-74.87123604 204.94959733 -74.88082063 185.39883562 -74.8741737 165.8480137 C-74.87068545 154.88012475 -74.87288744 143.91231061 -74.89042473 132.94443321 C-74.90517004 123.60718051 -74.90575177 114.27005529 -74.88835382 104.93280502 C-74.87986041 100.17343226 -74.87765356 95.41428701 -74.89300537 90.6549263 C-74.90691216 86.28932414 -74.90201297 81.92414311 -74.88276614 77.55856494 C-74.87902408 75.98800885 -74.88187573 74.41741853 -74.89237779 72.84689309 C-75.02094464 52.1303223 -68.84758349 34.67409116 -54.37580872 19.38768005 C-49.03493292 14.17752499 -43.09195392 10.47294399 -36.50080872 7.07518005 C-35.87746643 6.74945007 -35.25412415 6.42372009 -34.6118927 6.08811951 C-23.48732637 0.63712453 -12.17725956 -0.05109085 0 0 Z " fill="#0077B5" transform="translate(74.37580871582031,-0.3876800537109375)"/>
<path d="M0 0 C1.95292969 -0.01740234 1.95292969 -0.01740234 3.9453125 -0.03515625 C23.58259353 0.02375559 40.58744073 6.04827802 55 19.5 C75.22373662 40.65110373 78.50746164 71.93030824 78.53613281 99.84130859 C78.54109772 101.02335876 78.54606262 102.20540894 78.55117798 103.42327881 C78.56565281 107.29000449 78.5725729 111.15668931 78.578125 115.0234375 C78.58086586 116.36432545 78.58372265 117.70521316 78.58669281 119.04610062 C78.60030881 125.33690527 78.61000953 131.62769722 78.6138947 137.91851556 C78.6183902 145.15398169 78.63603146 152.38926032 78.6648953 159.62466943 C78.68652077 165.24194768 78.6965991 170.8591731 78.69793582 176.47649252 C78.69898131 179.82227417 78.70629484 183.16773706 78.72275543 186.51350021 C78.73978637 190.23749925 78.73794386 193.96103655 78.73144531 197.68505859 C78.7406601 198.7854245 78.74987488 199.88579041 78.7593689 201.01950073 C78.70517089 210.92097733 78.70517089 210.92097733 75.375 215.375 C71.89635988 217.39084665 68.80993934 217.63368196 64.83789062 217.66552734 C63.75326538 217.67828705 62.66864014 217.69104675 61.55114746 217.70419312 C59.80879822 217.70753159 59.80879822 217.70753159 58.03125 217.7109375 C56.22847595 217.7209227 56.22847595 217.7209227 54.38928223 217.73110962 C51.85084563 217.74122464 49.31238251 217.745927 46.77392578 217.74560547 C42.88920451 217.74998399 39.0056145 217.78633299 35.12109375 217.82421875 C32.65364972 217.83008599 30.18620029 217.834056 27.71875 217.8359375 C26.55718384 217.85030853 25.39561768 217.86467957 24.19885254 217.87948608 C16.14835921 217.8338143 16.14835921 217.8338143 12.16601562 215.47119141 C9.55629155 212.4167897 9.24964381 210.77726151 9.24369812 206.84507751 C9.23768585 205.41374229 9.23768585 205.41374229 9.23155212 203.95349121 C9.2323452 202.37731018 9.2323452 202.37731018 9.2331543 200.76928711 C9.22967987 199.66488785 9.22620544 198.56048859 9.22262573 197.42262268 C9.21525643 195.0152277 9.20991733 192.60782588 9.20633507 190.20042229 C9.19917159 186.37717576 9.18350106 182.55405773 9.16499329 178.73085022 C9.11255184 167.85663828 9.06421742 156.98249047 9.04907227 146.1081543 C9.03971757 139.45968752 9.00941792 132.81150349 8.96775246 126.16314888 C8.95552195 123.64012631 8.95030649 121.11705871 8.95255089 118.59400749 C9.29260279 90.67027842 9.29260279 90.67027842 -3.28515625 66.546875 C-9.7497871 60.47984103 -16.95152248 58.86678959 -25.625 59 C-26.38039063 58.98839844 -27.13578125 58.97679687 -27.9140625 58.96484375 C-36.88908414 59.01110675 -44.12032926 62.22228539 -50.625 68.375 C-56.72727681 75.23540081 -59.405178 82.56731916 -61.625 91.375 C-61.80227725 91.9961072 -61.9795545 92.61721439 -62.16220379 93.25714302 C-62.6767288 95.61172233 -62.75264762 97.73347652 -62.75630188 100.14352417 C-62.76031006 101.09956543 -62.76431824 102.05560669 -62.76844788 103.0406189 C-62.76791916 104.08279572 -62.76739044 105.12497253 -62.7668457 106.19873047 C-62.77205734 107.85301056 -62.77205734 107.85301056 -62.77737427 109.54071045 C-62.78472665 111.93608979 -62.79007479 114.33147593 -62.79366493 116.72686386 C-62.80082974 120.51784548 -62.81649594 124.30869763 -62.83500671 128.09963989 C-62.88748053 138.87842494 -62.93590173 149.65712637 -62.95092773 160.43603516 C-62.96021187 167.0284058 -62.99031002 173.6204856 -63.03224754 180.21274185 C-63.04456875 182.72531797 -63.04967677 185.23794016 -63.04744911 187.7505455 C-63.04509968 191.26487915 -63.06723656 194.77827362 -63.0949707 198.29248047 C-63.08506859 199.849673 -63.08506859 199.849673 -63.07496643 201.43832397 C-63.14985255 207.21459673 -63.55812749 210.91284714 -67.625 215.375 C-70.66604527 217.52612731 -73.28360771 217.63961289 -76.95678711 217.68139648 C-78.02146713 217.69738388 -79.08614716 217.71337128 -80.18309021 217.72984314 C-81.32794388 217.73520584 -82.47279755 217.74056854 -83.65234375 217.74609375 C-84.83341202 217.75512222 -86.01448029 217.7641507 -87.2313385 217.77345276 C-89.72866275 217.78795752 -92.22602503 217.79684255 -94.72338867 217.80053711 C-98.54475766 217.81244471 -102.36451811 217.86164156 -106.18554688 217.91210938 C-108.61197128 217.92157222 -111.03840561 217.92880792 -113.46484375 217.93359375 C-114.60767319 217.95312607 -115.75050262 217.97265839 -116.92796326 217.99278259 C-125.75259134 217.94255589 -125.75259134 217.94255589 -128.82250977 214.90258789 C-129.71474243 213.65143188 -129.71474243 213.65143188 -130.625 212.375 C-130.955 212.045 -131.285 211.715 -131.625 211.375 C-131.73166004 208.78139847 -131.77278452 206.21410589 -131.77217102 203.61968994 C-131.77584771 202.79748577 -131.7795244 201.9752816 -131.7833125 201.12816215 C-131.79439476 198.35138578 -131.79820084 195.57464678 -131.80200195 192.79785156 C-131.8082632 190.81569295 -131.8149097 188.83353552 -131.82191467 186.85137939 C-131.83935659 181.45045278 -131.8498852 176.04953505 -131.8581202 170.64858723 C-131.86326378 167.27707323 -131.86933981 163.90556202 -131.87563133 160.53404999 C-131.89469263 149.9936153 -131.90892154 139.45318766 -131.9172433 128.91273904 C-131.92701902 116.73042783 -131.95334341 104.54829817 -131.99374419 92.36605096 C-132.02386985 82.96050873 -132.03870882 73.55501864 -132.04202431 64.14942908 C-132.04437896 58.52709143 -132.05339305 52.9049475 -132.07848549 47.28266144 C-132.10170896 41.99345838 -132.1060225 36.70457737 -132.09572411 31.41533661 C-132.09522723 29.47268098 -132.10159214 27.53000981 -132.11528015 25.58740234 C-132.13291014 22.93729406 -132.1259371 20.28835268 -132.11274719 17.63824463 C-132.12371644 16.8675194 -132.13468568 16.09679417 -132.14598733 15.30271363 C-132.08669201 10.37587833 -131.15609589 7.82438381 -127.625 4.375 C-125.06481964 3.09490982 -123.2033472 3.21992877 -120.33666992 3.18212891 C-119.23179733 3.16606598 -118.12692474 3.15000305 -116.98857117 3.13345337 C-111.93338576 3.08907965 -106.87833255 3.04794199 -101.82299805 3.02490234 C-99.15408439 3.01156713 -96.48697813 2.98104198 -93.81811523 2.94287109 C-89.97616487 2.88818649 -86.13525556 2.86624013 -82.29296875 2.8515625 C-81.10011765 2.82889313 -79.90726654 2.80622375 -78.67826843 2.78286743 C-69.46406379 2.80643392 -69.46406379 2.80643392 -66.39575195 5.78271484 C-63.4017611 10.16575563 -63.31948807 13.80968364 -63.0625 19 C-63.01931641 19.80179688 -62.97613281 20.60359375 -62.93164062 21.4296875 C-62.82548543 23.4112511 -62.72473145 25.39310271 -62.625 27.375 C-62.18671875 26.75753906 -61.7484375 26.14007813 -61.296875 25.50390625 C-50.10716376 10.56154795 -35.75887388 3.64779672 -17.66995239 0.65460205 C-11.8060041 -0.1471633 -5.90493953 -0.05293272 0 0 Z " fill="#FEFEFE" transform="translate(336.625,198.625)"/>
<path d="M0 0 C1.62716446 -0.01913956 1.62716446 -0.01913956 3.28720093 -0.03866577 C5.04503403 -0.04200424 5.04503403 -0.04200424 6.83837891 -0.04541016 C8.04305817 -0.05206696 9.24773743 -0.05872375 10.48892212 -0.06558228 C13.03931143 -0.0757154 15.5897273 -0.08039909 18.14013672 -0.08007812 C22.04259973 -0.08444764 25.94392886 -0.12075274 29.84619141 -0.15869141 C32.32275003 -0.16456008 34.79931404 -0.16852913 37.27587891 -0.17041016 C39.02763931 -0.19196671 39.02763931 -0.19196671 40.81478882 -0.21395874 C48.87686126 -0.16849187 48.87686126 -0.16849187 52.84082031 2.06933594 C56.64736025 6.6418076 56.98150225 10.35815879 56.95736694 16.20332336 C56.96189806 17.00626192 56.96642917 17.80920047 56.97109759 18.6364705 C56.98376992 21.33021507 56.98211939 24.02375819 56.98046875 26.7175293 C56.98645227 28.64762635 56.9932574 30.577721 57.00082397 32.5078125 C57.01851001 37.75375888 57.02318048 42.99964003 57.02445555 48.24561334 C57.02635384 52.62430963 57.03371064 57.0029907 57.04079974 61.38168114 C57.05709149 71.71287664 57.061968 82.04403728 57.06054688 92.37524414 C57.05934549 103.03278746 57.08044504 113.69012824 57.1120342 124.34762031 C57.1381864 133.49678892 57.1489146 142.64589135 57.14763606 151.79509705 C57.14712608 157.25983081 57.15282908 162.72438466 57.17399216 168.18908119 C57.19335645 173.32978819 57.19351128 178.47014333 57.17895889 183.61086273 C57.1768674 185.49623567 57.18159194 187.38163052 57.19367981 189.26696587 C57.20913044 191.84398382 57.19982581 194.41978833 57.18441772 196.9967804 C57.19470485 197.74017884 57.20499198 198.48357729 57.21559083 199.24950296 C57.14281938 204.76970973 55.7532271 207.85512853 52.68994141 212.29052734 C49.30159284 214.27467196 46.32680284 214.55074401 42.4440918 214.59692383 C40.91208885 214.62090492 40.91208885 214.62090492 39.34913635 214.64537048 C38.25632858 214.65073318 37.16352081 214.65609589 36.03759766 214.66162109 C34.9047081 214.67064957 33.77181854 214.67967804 32.604599 214.6889801 C30.21160521 214.70347036 27.81857191 214.71236629 25.42553711 214.71606445 C21.76885269 214.72797389 18.1138487 214.77718592 14.45751953 214.82763672 C12.13005379 214.83709979 9.80257771 214.84433538 7.47509766 214.84912109 C6.38431412 214.86865341 5.29353058 214.88818573 4.16969299 214.90830994 C-4.29808834 214.85807518 -4.29808834 214.85807518 -7.98413086 211.94311523 C-11.72687161 207.67473293 -11.45667748 203.85391737 -11.45050049 198.45329285 C-11.45347161 197.6464196 -11.45644273 196.83954635 -11.45950389 196.0082224 C-11.46819919 193.29526611 -11.46969984 190.5823539 -11.47119141 187.86938477 C-11.47581898 185.92796229 -11.48084356 183.98654073 -11.48623657 182.04512024 C-11.49936817 176.76407206 -11.50580698 171.48303659 -11.51024723 166.20197463 C-11.51317665 162.90381114 -11.51728121 159.60565113 -11.5217514 156.3074894 C-11.53542816 145.9918444 -11.54509402 135.67620736 -11.54895329 125.36055392 C-11.55343502 113.44601719 -11.57098754 101.53159512 -11.59995389 89.61709327 C-11.62155782 80.41191725 -11.63165688 71.20677353 -11.63299441 62.00157243 C-11.63404334 56.50167169 -11.63996981 51.00187871 -11.65781403 45.50200462 C-11.67427245 40.32853871 -11.67646102 35.15526183 -11.66767502 29.9817791 C-11.66690346 28.08308659 -11.671263 26.18438402 -11.68113327 24.28571701 C-11.69382022 21.69315641 -11.68799378 19.10126858 -11.67755127 16.50871277 C-11.68560767 15.75782841 -11.69366408 15.00694406 -11.70196462 14.23330563 C-11.65758325 9.52022674 -10.84779605 6.2718001 -8.31005859 2.29052734 C-4.97929216 0.07001639 -3.88739532 0.03102179 0 0 Z " fill="#FDFEFE" transform="translate(118.31005859375,201.70947265625)"/>
<path d="M0 0 C6.2206037 4.99149498 10.79017919 10.7017578 14 18 C14.38623535 18.85887817 14.38623535 18.85887817 14.78027344 19.73510742 C16.95220736 24.93961376 17.54591865 29.57222253 17.5 35.1875 C17.49355469 36.01757568 17.48710937 36.84765137 17.48046875 37.70288086 C17.1259904 49.75631097 12.52336973 59.49160983 4 68 C-6.01651161 76.78345032 -17.08908197 79.87440149 -30.234375 79.31640625 C-41.23846036 78.39178912 -51.61654124 73.47679926 -59.265625 65.390625 C-67.65613313 53.82533001 -71.08832142 42.25547779 -70 28 C-67.31934043 16.20509789 -60.77690203 6.06896781 -51 -1 C-34.47138652 -11.07092263 -16.31541577 -10.16726309 0 0 Z " fill="#FDFEFE" transform="translate(167,104)"/>
</svg>
